<svg width="100" height="148" viewBox="0 0 100 148" fill="none" xmlns="http://www.w3.org/2000/svg">
<path d="M27 32.5024C27 32.5024 20.571 32.39 16.7576 33.7022C12.2314 35.2596 9.74183 36.9222 6.51515 40.5013C3.53894 43.8026 1 50.5 1 50.5" stroke="#FF9800" stroke-width="2" stroke-linecap="round" stroke-linejoin="round"/>
<path d="M27 38.5019C27 38.5019 22.0546 38.4145 19.1212 39.4351C15.6396 40.6464 13.7245 41.9395 11.2424 44.7232C8.95303 47.2909 7 52.5 7 52.5" stroke="#FF9800" stroke-width="2" stroke-linecap="round" stroke-linejoin="round"/>
<path d="M32 123H27V146.5H98.5V123H93.5M32 123V116H44.5M32 123H93.5M93.5 123V116H78M44.5 116C42.6667 114.333 39 106.8 39 102C39 97.2 39.5 96 40 93.5C40.5 91 42 88.5 42 88.5M44.5 116H78M48.5 64.5C48.5 64.5 49.9352 68.4942 52.5 70C54.689 71.2852 55.9924 69.4465 58 71C59.6632 72.287 58.7484 74.8099 60 76.5C61.3249 78.2892 63.8105 77.5036 64.5 79.5C65.1655 81.4269 62.461 82.279 63 84.5C63.5545 86.785 66.7031 86.6675 67 89C67.4013 92.1532 61.5 95 61.5 95M48.5 64.5L43.5 60.5714M48.5 64.5L57.5 60.5714L56.8475 54M42 88.5C42 88.5 43.0641 86.7352 43.5 85.5C44.6698 82.1857 43.9608 77.9844 43.5 74.5C42.7957 69.174 41.6151 67.3345 39 63.5C37.209 60.8739 33.5 57.5 33.5 57.5C33.5 57.5 37.2957 56.3296 40 58C40.8451 58.522 43.5 60.5714 43.5 60.5714M42 88.5C42 88.5 46.0228 86.5423 48.5 87.5C50.8746 88.418 52 92 52 92M43.5 60.5714C43.5 60.5714 42.7801 54.9687 43.5 51.5C44.3343 47.4805 45.3771 45.1579 48 42C50.2213 39.3256 52.6047 39.0197 55 36.5C57.3146 34.0652 60 29.5 60 29.5M60 29.5C60 29.5 62.7411 24.5087 63.5 21C64.4081 16.8013 65.2521 13.9222 63.5 10C62.7821 8.39298 61 6.25 61 6.25M60 29.5L57.5 40.5L56.5 50.5L56.8475 54M46.5 44C46.5 44 40.2017 41.1168 39.5 37.5C39.076 35.3144 40 33.5 40 33.5C40 33.5 42.9023 34.6502 45 34.5C47.7681 34.3018 50.5 31 50.5 31C50 30.5 49.1 29.3 45.5 28.5C41.9 27.7 39 29.5 38.5 30.5C38.5 30.5 36.2654 27.2572 35.5 25C34.6221 22.4111 35 20 35 20C35 20 36.3926 18.1519 39 17.5C40.8044 17.0488 44 16.5 44 16.5C44 16.5 46.2878 13.9696 48.5 12.5C50.8287 10.953 55.5 10 55.5 10L57.5 1L61 6.25M61 6.25C61 6.25 66.3657 7.12631 68.5 9.5C70.1972 11.3876 70.3489 13.0465 71 15.5C71.6511 17.9535 68.5 36 68.5 36C67.7213 40.819 68 49 68 49M61 6.25L65.75 5.625M82.5 55.5C86.991 56.281 94 57.5 94 57.5C94 57.5 89.8139 46.4395 89 39C88.4267 33.7592 89.7587 30.7172 89 25.5C88.3592 21.0937 88.2187 18.3605 86 14.5C84.0036 11.0264 82.5139 8.92467 79 7C76.0092 5.3618 73.9101 4.98929 70.5 5C68.629 5.00588 65.75 5.625 65.75 5.625M82.5 55.5C81.5486 51.0936 81.2107 48.503 81 44C80.7536 38.7337 81.2628 34.7655 81 29.5C80.785 25.1919 80.9719 23.2874 80 19.5C79.0881 15.9465 79.1655 13.6677 76.5 11C74.8905 9.38914 74.0765 8.43469 72 7.5C69.6763 6.45402 65.75 5.625 65.75 5.625M82.5 55.5C85.0384 62.3342 89 73 89 73L85.5 71.8049M56.8475 54L68 49M68 49V51L68.5 66L85.5 71.8049M85.5 71.8049C85.5 71.8049 87.305 76.727 88 80C88.6138 82.8904 89 87.5 89 87.5C89 87.5 89.4659 93.0163 89 96.5C88.5165 100.116 88.0299 102.189 86.5 105.5C84.6817 109.436 80 114.5 80 114.5L78 116" stroke="#FF9800" stroke-width="2" stroke-linejoin="round"/>
<circle cx="56" cy="96" r="5.5" stroke="#FF9800" stroke-width="2"/>
<rect x="50.5" y="19.4243" width="5.98153" height="3.24863" rx="1.62431" transform="rotate(-18.766 50.5 19.4243)" fill="#FF9800"/>
</svg>
