<svg width="131" height="136" viewBox="0 0 131 136" fill="none" xmlns="http://www.w3.org/2000/svg">
<path d="M117.237 134.102H95.8127M37.4664 134.102V124.074L15.5866 95.3569L18.5386 91.7102M37.4664 134.102H67.5512M37.4664 134.102L69.8304 103.562M31.0848 76.212L18.5386 91.7102M31.0848 76.212L20.7092 48.1784M31.0848 76.212L43.8481 85.2936M69.8304 103.562L80.7703 93.4971M69.8304 103.562L63.3097 93.5634M99.4594 96.2686L106.297 106.297M99.4594 96.2686L92.6219 93.9894M99.4594 96.2686L99.9152 73.9329C99.9152 73.9329 98.7689 70.4843 97.1802 68.9187C95.9841 67.74 93.5336 66.6396 93.5336 66.6396M106.297 106.297H128.177L124.074 116.781M106.297 106.297L95.8127 134.102M95.8127 134.102L91.2544 101.739M95.8127 134.102H67.5512M83.0495 101.739L67.5512 134.102M18.5386 91.7102L11.4841 65.2721M11.4841 65.2721H7.83746L6.01413 48.8622M11.4841 65.2721H18.5386L20.7092 48.1784M22.8799 31.0848H26.9823V21.9682H17.8657M22.8799 31.0848H1V21.9682H9.66078M22.8799 31.0848L20.7092 48.1784M93.5336 66.6396C92.2618 69.5575 90.6722 70.8054 89.2152 73.477M93.5336 66.6396C94.3697 64.7212 94.9445 63.2476 95.3172 61.6254M54.2652 73.0212C54.441 73.306 54.6155 73.6082 54.788 73.9329C56.6648 77.4656 55.8318 80.4676 58.4346 83.5053C60.0206 85.3562 61.4209 86.3424 63.3097 87.2281M54.2652 73.0212C52.9066 70.8201 51.4674 69.6532 50.2297 67.0954C50.0775 66.781 49.9321 66.4779 49.7931 66.1837M54.2652 73.0212L54.788 58.8905M54.2652 73.0212C54.2652 73.0212 55.9936 80.8438 54.2652 85.3286C53.4188 87.5249 51.1413 90.483 51.1413 90.483M54.788 58.8905C54.788 58.8905 56.2847 53.4555 58.4346 50.6855C60.2933 48.2907 61.6575 47.044 64.3604 45.6714C66.9781 44.3421 68.7199 43.9581 71.6537 43.8481M54.788 58.8905C54.788 58.8905 61.2997 59.7389 64.8163 57.9788C68.4252 56.1724 71.6537 50.2297 71.6537 50.2297M71.6537 43.8481C75.1077 43.7185 77.2792 44.018 80.3145 45.6714C82.8593 47.0576 84.1013 48.3266 85.7845 50.6855C87.7813 53.4842 88.9753 58.8905 88.9753 58.8905M71.6537 43.8481V50.2297M88.9753 58.8905L89.2152 73.477M88.9753 58.8905C88.9753 58.8905 83.1641 59.3486 79.8587 57.9788C75.787 56.2915 71.6537 50.2297 71.6537 50.2297M89.2152 73.477C89.1348 73.6245 89.0548 73.7762 88.9753 73.9329C87.1643 77.4998 87.8975 80.4388 85.3286 83.5053C83.8284 85.2961 82.5474 86.3186 80.7703 87.2281M89.2152 73.477C89.2152 73.477 88.2334 82.1721 89.2152 86.6961C89.9935 90.2825 92.6219 93.9894 92.6219 93.9894M80.7703 87.2281C80.2177 87.511 79.6171 87.7829 78.947 88.0636C76.2742 89.1832 74.5506 89.5057 71.6537 89.4311C69.1058 89.3655 67.6412 89.0035 65.2721 88.0636C64.5547 87.779 63.9077 87.5086 63.3097 87.2281M80.7703 87.2281V93.4971M80.7703 93.4971L81.2261 93.0777H89.8869L92.6219 93.9894M63.3097 87.2281V93.5634M63.3097 93.5634L62.9929 93.0777H54.788L51.1413 90.483M51.1413 90.483L43.8481 85.2936M49.7931 66.1837C49.7931 66.1837 48.4064 66.6396 46.1272 68.9187C44.5907 70.4552 43.8481 73.477 43.8481 73.477V85.2936M49.7931 66.1837C49.0105 64.5266 48.4356 63.1521 48.0474 61.6254M48.0474 61.6254C47.7711 60.5391 47.5894 59.3757 47.4947 57.9788C47.3178 55.3697 47.4811 53.5298 48.0474 51.4187M48.0474 61.6254C41.1776 60.106 27.6205 57.0671 28.3498 57.0671C29.0792 57.0671 41.7854 53.3015 48.0474 51.4187M48.0474 51.4187C48.2607 50.6235 48.5312 49.7899 48.8622 48.8622C49.5991 46.797 50.2822 45.3111 51.2604 43.8481M51.2604 43.8481C51.8485 42.9684 52.5432 42.0971 53.4205 41.1131C55.1612 39.1606 56.5482 37.9557 58.4346 36.8431M51.2604 43.8481L42.0247 27.4382L58.4346 36.8431M58.4346 36.8431C59.1158 36.4414 59.8622 36.0517 60.7138 35.6431C63.1117 34.4928 64.8995 33.9484 67.0954 33.6375M67.0954 33.6375C67.9296 33.5195 68.8226 33.4351 69.8304 33.364C73.3995 33.1121 75.5297 33.2152 78.947 34.2756C81.6469 35.1134 83.3791 35.9847 85.3286 37.4079M67.0954 33.6375L71.6537 12.8516L77.1237 33.364L84.1827 36.8431M85.3286 37.4079C85.907 37.8302 86.5044 38.301 87.1519 38.8339C89.2718 40.5786 90.7596 42.0155 92.0102 43.8481M85.3286 37.4079L84.1827 36.8431M84.1827 36.8431L101.739 26.5265L92.0102 43.8481M92.0102 43.8481C92.7226 44.8919 93.358 46.0641 93.9894 47.4947C94.6238 48.932 95.0755 50.1881 95.3782 51.4187M95.3782 51.4187C95.8763 53.4433 95.9711 55.3989 95.8127 57.9788C95.7266 59.3809 95.5675 60.5366 95.3172 61.6254M95.3782 51.4187L114.502 57.0671L95.3172 61.6254M9.66078 21.9682C9.66078 21.9682 6.01413 16.7864 6.01413 14.2191C6.01413 11.0283 7.58481 9.58392 9.66078 6.46996C11.4841 3.73498 13.7633 1 13.7633 1C13.7633 1 16.029 3.71485 17.8657 6.46996C18.7774 7.83746 21.804 11.4841 21.5124 14.2191C21.1721 17.4099 17.8657 21.9682 17.8657 21.9682M9.66078 21.9682H17.8657" stroke="#FF9800" stroke-width="2" stroke-linecap="round" stroke-linejoin="round"/>
<circle cx="121.795" cy="125.898" r="8.20495" stroke="#FF9800" stroke-width="2"/>
<rect x="1.45605" y="31.5406" width="9.11661" height="16.4099" rx="4.5583" stroke="#FF9800" stroke-width="2"/>
</svg>
