<svg width="43" height="43" viewBox="0 0 43 43" fill="none" xmlns="http://www.w3.org/2000/svg">
<circle cx="21.5" cy="21.5" r="21.5" fill="white"/>
<path d="M22 13.6667C17.405 13.6667 13.6667 17.405 13.6667 22V25.4525C13.6667 26.3059 14.4142 27 15.3333 27H16.1667C16.3877 27 16.5996 26.9122 16.7559 26.7559C16.9122 26.5997 17 26.3877 17 26.1667V21.8809C17 21.6598 16.9122 21.4479 16.7559 21.2916C16.5996 21.1353 16.3877 21.0475 16.1667 21.0475H15.41C15.8733 17.8225 18.6483 15.3334 22 15.3334C25.3517 15.3334 28.1267 17.8225 28.59 21.0475H27.8333C27.6123 21.0475 27.4003 21.1353 27.2441 21.2916C27.0878 21.4479 27 21.6598 27 21.8809V27C27 27.9192 26.2525 28.6667 25.3333 28.6667H23.6667V27.8334H20.3333V30.3334H25.3333C27.1717 30.3334 28.6667 28.8384 28.6667 27C29.5858 27 30.3333 26.3059 30.3333 25.4525V22C30.3333 17.405 26.595 13.6667 22 13.6667Z" fill="#428F9C"/>
</svg>
