<svg width="26" height="26" viewBox="0 0 26 26" fill="none" xmlns="http://www.w3.org/2000/svg">
<circle cx="13" cy="13" r="13" fill="#428F9C"/>
<path d="M13 6.33331C9.32401 6.33331 6.33334 9.32398 6.33334 13V15.762C6.33334 16.4446 6.93134 17 7.66668 17H8.33334C8.51015 17 8.67972 16.9297 8.80475 16.8047C8.92977 16.6797 9.00001 16.5101 9.00001 16.3333V12.9046C9.00001 12.7278 8.92977 12.5583 8.80475 12.4332C8.67972 12.3082 8.51015 12.238 8.33334 12.238H7.72801C8.09868 9.65798 10.3187 7.66665 13 7.66665C15.6813 7.66665 17.9013 9.65798 18.272 12.238H17.6667C17.4899 12.238 17.3203 12.3082 17.1953 12.4332C17.0702 12.5583 17 12.7278 17 12.9046V17C17 17.7353 16.402 18.3333 15.6667 18.3333H14.3333V17.6666H11.6667V19.6666H15.6667C17.1373 19.6666 18.3333 18.4706 18.3333 17C19.0687 17 19.6667 16.4446 19.6667 15.762V13C19.6667 9.32398 16.676 6.33331 13 6.33331Z" fill="white"/>
</svg>
