<svg width="133" height="150" viewBox="0 0 133 150" fill="none" xmlns="http://www.w3.org/2000/svg">
<path d="M119.5 76.9998C119.5 81.1419 116.142 84.4998 112 84.4998C107.858 84.4998 104.5 81.1419 104.5 76.9998C104.5 72.8576 107.858 69.4998 112 69.4998C116.142 69.4998 119.5 72.8576 119.5 76.9998ZM108.265 76.9998C108.265 79.0626 109.937 80.7349 112 80.7349C114.063 80.7349 115.735 79.0626 115.735 76.9998C115.735 74.9369 114.063 73.2646 112 73.2646C109.937 73.2646 108.265 74.9369 108.265 76.9998Z" fill="#FF9800"/>
<path d="M27.5 76.9998C27.5 81.1419 24.1421 84.4998 20 84.4998C15.8579 84.4998 12.5 81.1419 12.5 76.9998C12.5 72.8576 15.8579 69.4998 20 69.4998C24.1421 69.4998 27.5 72.8576 27.5 76.9998ZM16.2649 76.9998C16.2649 79.0626 17.9371 80.7349 20 80.7349C22.0629 80.7349 23.7351 79.0626 23.7351 76.9998C23.7351 74.9369 22.0629 73.2646 20 73.2646C17.9371 73.2646 16.2649 74.9369 16.2649 76.9998Z" fill="#FF9800"/>
<path d="M1 60.5H132M34.5 148.5H4.5V138.5M34.5 148.5H44M34.5 148.5V138.5M98 148.5H127.5V138.5M98 148.5H88M98 148.5V138.5M66.25 72.5H34.5V91M66.25 72.5H98V91.5M66.25 72.5V81.5M66.25 81.5C66.25 81.5 61.5 80.9998 54 85.9998C48 89.9998 44 99 44 99V148.5M66.25 81.5C66.25 81.5 70.6766 80.9704 78.5 85.9998C85.5 90.4998 88 99 88 99V148.5M44 148.5H88M4.5 91V49H15M4.5 91H34.5M4.5 91V110.5M34.5 91V110.5M34.5 110.5H4.5M34.5 110.5V138.5M4.5 110.5V138.5M4.5 138.5H34.5M98 138.5H127.5M98 138.5V110.5M127.5 138.5V110.5M127.5 110.5H98M127.5 110.5V91.5M98 110.5V91.5M98 91.5H127.5M127.5 91.5V49H117M15 49V35.5H20.5M15 49H44M117 49V35.5H111.5M117 49H88M88 49V35.5M88 49H44M88 35.5H44M88 35.5H111.5M44 35.5V49M44 35.5H20.5M20.5 35.5V21.5H34.5M111.5 35.5V21.5H97.5M34.5 21.5V11H44C44 11 52.5 1 65 1C80 1 87 11 87 11H97.5V21.5M34.5 21.5H97.5" stroke="#FF9800" stroke-width="2" stroke-linecap="round" stroke-linejoin="round"/>
</svg>
