<svg width="150" height="150" viewBox="0 0 150 150" fill="none" xmlns="http://www.w3.org/2000/svg">
<path d="M4 53.0001H1V58.5001L4 61.5001V81M4 53.0001V37.0001L1 33.5001V28.0001H6.5M4 53.0001H19M6.5 28.0001V18M6.5 28.0001H16.5M11.5 8C7.5 8 6.5 12.5001 6.5 12.5001V18M11.5 8C15.5 8 16.5 12.5001 16.5 12.5001V18M11.5 8V1M16.5 28.0001H22V33.5001L19 37.0001V53.0001M16.5 28.0001V18M19 53.0001H22V58.5001L19 61.5001V81M19 148.5H4V81M19 148.5V116M19 148.5H67M6.5 18H16.5M4 81H19M19 81V116M19 116H29.5M29.5 116V96H34.5M29.5 116H67M34.5 96V86H39.5M34.5 96H115M39.5 86V66H44M39.5 86H109.5M109.5 86V66H89.5M109.5 86H115V96M115 96H120.5V116M120.5 116H82M120.5 116V136M82 116C82 116 82.0043 113.181 81 112C78.875 109.5 75 107 74.5 107C74 107 69.7187 109.453 68 112C67.1325 113.285 67 116 67 116M82 116V148.5M67 116V148.5M142.5 58H148.5V62.5L145.5 66V88.5M142.5 58H132.5M142.5 58V48M137.5 38C141 38 142.5 41.5 142.5 41.5V48M137.5 38C134 38 132.5 41.5 132.5 41.5V48M137.5 38V31.5M132.5 58H127V62.5L129.5 66V88.5M132.5 58V48M129.5 136H120.5M129.5 136H145.5M129.5 136V88.5M120.5 136H112L105 148.5M105 148.5H145.5V136M105 148.5H82M145.5 136V88.5M129.5 88.5H145.5M132.5 48H142.5M82 148.5H67M92 125H93.5V140.5H92M92 125H90.5V140.5H92M92 125V140.5M102 124.5H103.5V133H102M102 124.5H100.5V133H102M102 124.5V133M31.5 124.5H33.5V140.5H31.5M31.5 124.5H29.5V140.5H31.5M31.5 124.5V140.5M44.25 124.5H46V140.5H44.25M44.25 124.5H42.5V140.5H44.25M44.25 124.5V140.5M57 124.5H59V140.5H57M57 124.5H55V140.5H57M57 124.5V140.5M41.75 104.5H43.5V108H41.75M41.75 104.5H40V108H41.75M41.75 104.5V108M54.5 104.5H56.25V108H54.5M54.5 104.5H52.75V108H54.5M54.5 104.5V108M94.5 104.5H96.25V108H94.5M94.5 104.5H92.75V108H94.5M94.5 104.5V108M107.25 104.5H109V108H107.25M107.25 104.5H105.5V108H107.25M107.25 104.5V108M99.5 74H101.25V77.5H99.5M99.5 74H97.75V77.5H99.5M99.5 74V77.5M89.5 74H91.25V77.5H89.5M89.5 74H87.75V77.5H89.5M89.5 74V77.5M79.5 74H81.25V77.5H79.5M79.5 74H77.75V77.5H79.5M79.5 74V77.5M69.5 74H71.25V77.5H69.5M69.5 74H67.75V77.5H69.5M69.5 74V77.5M59.25 74H61V77.5H59.25M59.25 74H57.5V77.5H59.25M59.25 74V77.5M49.5 74H51.25V77.5H49.5M49.5 74H47.75V77.5H49.5M49.5 74V77.5M74.5 19V29.5M74.5 66V29.5M74.5 66H59.25M74.5 66H89.5M44 66C44 66 44.3014 53.1755 49.5 46C59.25 32.5425 74.5 29.5 74.5 29.5M44 66H59.25M74.5 29.5C74.5 29.5 89.75 32.5425 99.5 46C104.699 53.1755 105 66 105 66M74.5 29.5C74.5 29.5 61.2825 41.9163 59.25 52.5C58.2557 57.6775 59.25 66 59.25 66M74.5 29.5C74.5 29.5 87.496 41.9655 89.5 52.5C90.4852 57.6792 89.5 66 89.5 66" stroke="#FF9800" stroke-width="2" stroke-linecap="round" stroke-linejoin="round"/>
</svg>
