<svg width="153" height="148" viewBox="0 0 153 148" fill="none" xmlns="http://www.w3.org/2000/svg">
<path d="M57.4319 2.15085V25.532M57.4319 147H105.258C105.258 147 109.628 130.272 110.388 123.049C111.148 115.825 111.78 102.876 109.304 91.1082C107.024 80.273 105.16 69.658 97.278 56.897C89.9134 44.9735 84.1676 39.2185 71.6824 31.2347C66.6321 28.0052 60.472 26.2924 57.4319 25.532M57.4319 147V36.9375M57.4319 147H48.8816V56.897M57.4319 25.532V36.9375M48.8816 56.897H39.7613V47.7726H48.8816M48.8816 56.897H58.5167M58.5167 47.7726V56.897M58.5167 47.7726H48.8816M58.5167 47.7726H60.5V56.897H58.5167M57.4319 36.9375H48.8816V47.7726M68.2623 117.916V136.735H95.0532C95.0532 136.735 96.1909 132.936 96.7632 130.462C97.6861 126.473 98.3414 122.291 98.706 117.916M68.2623 117.916V99.6674M68.2623 117.916H98.706M68.2623 63.17V42.6402C70.9224 44.1609 76.9639 48.8861 81.3727 54.0456C84.4077 57.5974 86.4898 60.1946 88.2878 63.17M68.2623 63.17H88.2878M68.2623 63.17V81.4187M88.2878 63.17C90.0189 66.0346 91.4866 69.2498 93.2879 74.0051C94.3104 76.7047 95.0967 79.1389 95.7169 81.4187M68.2623 81.4187H95.7169M68.2623 81.4187V99.6674M95.7169 81.4187C97.324 87.326 97.8165 92.1959 98.4181 97.9566C98.4779 98.5295 98.5333 99.0997 98.5844 99.6674M68.2623 99.6674H98.5844M98.5844 99.6674C99.162 106.084 99.185 112.167 98.706 117.916M6.13017 26.6726H40.3313C41.6614 26.2924 44.8915 23.4287 44.8915 20.3996C44.8915 17.3704 43.0718 15.4145 40.3313 14.1266C37.9135 12.9903 33.4911 14.1266 33.4911 14.1266C33.4911 11.8455 33.0449 8.39948 31.211 5.57248C29.0432 2.23067 26.6417 1.09997 22.6607 1.00515C18.4795 0.905548 16.0768 2.24548 13.5404 5.57248C11.4447 8.32148 11.6404 11.8455 11.2603 14.1266C10.1203 13.7464 7.39613 13.4647 5.50504 14.1266C2.51867 15.1717 1 16.4077 1 20.3996C1 24.3915 6.13017 26.6726 6.13017 26.6726ZM113.239 50.624H147.44C148.77 50.2438 152 47.3801 152 44.351C152 41.3219 150.18 39.3659 147.44 38.078C145.022 36.9417 140.6 38.078 140.6 38.078C140.6 35.7969 140.779 32.3509 138.945 29.5239C136.777 26.1821 133.805 25.0514 129.824 24.9566C125.643 24.857 123.185 26.1969 120.649 29.5239C118.553 32.2729 118.749 35.7969 118.369 38.078C117.229 37.6978 114.505 37.4161 112.614 38.078C109.627 39.1232 108.109 40.3591 108.109 44.351C108.109 48.3429 113.239 50.624 113.239 50.624Z" stroke="#FF9800" stroke-width="2" stroke-linecap="round" stroke-linejoin="round"/>
</svg>
